<?xml version="1.0" standalone="no"?>
<!DOCTYPE svg PUBLIC "-//W3C//DTD SVG 20010904//EN"
 "http://www.w3.org/TR/2001/REC-SVG-20010904/DTD/svg10.dtd">
<svg version="1.0" xmlns="http://www.w3.org/2000/svg"
 width="96.000000pt" height="96.000000pt" viewBox="0 0 96.000000 96.000000"
 preserveAspectRatio="xMidYMid meet">
<metadata>
Created by potrace 1.14, written by Peter Selinger 2001-2017
</metadata>
<g transform="translate(0.000000,96.000000) scale(0.100000,-0.100000)"
fill="#000000" stroke="none">
<path d="M185 949 c-46 -22 -47 -29 -47 -454 0 -222 3 -417 6 -432 13 -56 42
-63 259 -63 l194 0 27 26 c28 29 28 31 28 184 0 118 0 112 -14 107 -9 -2 -13
-35 -14 -113 -2 -142 -1 -140 -20 -158 -13 -13 -46 -16 -208 -16 -181 0 -194
1 -211 20 -18 20 -19 47 -20 423 -1 385 2 431 29 449 6 4 97 8 203 8 161 0
194 -3 207 -16 18 -18 18 -15 20 -76 3 -82 28 -81 29 1 0 60 -15 94 -50 110
-30 14 -390 14 -418 0z"/>
<path d="M223 899 c-12 -4 -23 -16 -26 -26 -3 -10 -4 -192 -3 -405 1 -291 4
-390 13 -399 9 -9 63 -13 185 -13 218 -2 208 -9 205 145 -1 80 -6 114 -14 117
-10 3 -13 -24 -13 -111 0 -83 -3 -116 -13 -119 -10 -4 -289 -3 -324 1 -9 1
-12 96 -12 379 0 207 2 384 5 393 6 21 47 19 71 -3 14 -13 40 -18 101 -19 73
-1 85 1 97 18 9 13 24 19 42 19 25 -2 28 -6 33 -46 3 -25 10 -45 15 -45 14 0
16 80 2 99 -20 27 -82 28 -110 2 -19 -18 -35 -22 -86 -21 -46 1 -65 6 -74 19
-15 20 -61 27 -94 15z"/>
<path d="M348 740 c-10 -8 -20 -25 -23 -37 -4 -22 0 -23 49 -23 81 0 89 -11
91 -120 2 -118 -8 -133 -86 -135 -51 0 -54 -2 -51 -25 6 -47 21 -50 246 -50
116 0 216 4 222 8 21 14 30 42 26 82 l-4 40 -47 1 c-110 1 -131 5 -146 24 -21
28 -18 72 5 95 20 20 36 22 148 22 l42 0 0 53 c0 80 2 79 -243 80 -173 0 -214
-3 -229 -15z"/>
<path d="M325 553 l1 -98 39 -1 c69 -1 75 7 75 91 0 102 -2 105 -64 105 l-52
0 1 -97z m85 51 c0 -16 -16 -19 -25 -4 -8 13 4 32 16 25 5 -4 9 -13 9 -21z m0
-110 c0 -9 -5 -14 -12 -12 -18 6 -21 28 -4 28 9 0 16 -7 16 -16z"/>
<path d="M671 590 c-31 -7 -45 -44 -25 -65 11 -11 37 -15 94 -15 43 0 80 3 82
8 2 4 1 23 -2 42 l-5 35 -60 1 c-33 0 -71 -2 -84 -6z m19 -34 c0 -8 -4 -17 -9
-21 -12 -7 -24 12 -16 25 9 15 25 12 25 -4z"/>
<path d="M282 258 c-16 -16 -16 -80 0 -96 16 -16 210 -16 226 0 16 16 16 80 0
96 -16 16 -210 16 -226 0z m208 -28 c4 -7 5 -21 3 -31 -5 -17 -16 -19 -99 -19
l-94 0 0 29 c0 35 7 37 109 35 45 -1 77 -7 81 -14z"/>
</g>
</svg>
